<?xml version="1.0" standalone="no"?>
<!DOCTYPE svg PUBLIC "-//W3C//DTD SVG 20010904//EN"
 "http://www.w3.org/TR/2001/REC-SVG-20010904/DTD/svg10.dtd">
<svg version="1.0" xmlns="http://www.w3.org/2000/svg"
 width="920.000000pt" height="262.000000pt" viewBox="0 0 920.000000 262.000000"
 preserveAspectRatio="xMidYMid meet">

<g transform="translate(0.000000,262.000000) scale(0.100000,-0.100000)"
fill="#000000" stroke="none">
<path d="M102 2594 c-17 -14 -44 -47 -60 -72 l-27 -47 0 -1165 0 -1165 28 -47
c15 -26 42 -59 61 -73 l33 -25 4454 0 4454 0 37 30 c20 16 47 51 59 77 l24 48
-3 1140 c-3 1278 1 1200 -76 1281 l-43 44 -4454 0 -4454 0 -33 -26z m1745
-350 c-13 -169 -162 -324 -310 -324 l-40 0 6 61 c7 80 54 176 110 225 52 45
171 104 211 104 l29 0 -6 -66z m-454 -396 c104 -41 142 -40 247 2 79 32 93 35
195 35 102 0 115 -2 175 -31 36 -17 86 -52 112 -78 l48 -47 -60 -56 c-40 -37
-70 -77 -92 -121 -30 -61 -33 -74 -33 -162 0 -82 4 -103 27 -152 31 -67 105
-149 165 -185 24 -14 43 -27 43 -30 0 -3 -17 -42 -39 -88 -49 -105 -109 -194
-184 -272 -97 -102 -168 -115 -307 -57 -97 41 -195 40 -317 -4 -50 -17 -105
-32 -122 -32 -74 0 -142 51 -234 175 -169 227 -250 532 -202 760 49 232 242
397 443 379 30 -2 90 -19 135 -36z m2045 -501 c78 -243 142 -446 142 -450 0
-4 -35 -7 -77 -5 l-76 3 -13 40 c-7 22 -25 79 -40 128 l-26 87 -148 0 -147 0
-39 -130 -38 -130 -77 0 -76 0 52 158 c28 86 94 289 145 450 l95 292 90 0 90
0 143 -443z m2400 428 c28 -9 53 -19 56 -23 5 -8 -22 -112 -28 -112 -2 0 -23
7 -47 16 -24 9 -75 17 -114 18 -57 1 -77 -3 -106 -21 -60 -38 -76 -101 -40
-160 15 -24 49 -46 143 -92 148 -72 191 -110 214 -188 38 -129 -17 -247 -146
-314 -41 -22 -58 -24 -175 -24 -113 0 -136 3 -178 22 -37 17 -47 27 -43 40 2
10 10 37 17 61 7 23 14 42 16 42 2 0 21 -9 41 -19 21 -11 66 -25 101 -31 142
-26 240 28 241 131 0 66 -32 98 -167 164 -132 65 -185 107 -214 170 -35 76
-16 189 44 253 23 25 84 59 127 73 45 13 204 10 258 -6z m402 -155 l0 -80 79
0 78 0 7 -46 c3 -25 3 -50 0 -55 -3 -5 -39 -9 -80 -9 l-74 0 0 -185 c0 -236 8
-255 100 -255 34 0 38 -3 44 -31 12 -63 8 -76 -25 -83 -124 -25 -232 25 -258
119 -6 23 -11 125 -11 238 l0 197 -50 0 -50 0 0 55 0 55 50 0 50 0 0 63 0 63
58 16 c87 24 82 28 82 -62z m-2065 -89 c114 -53 175 -202 153 -377 -20 -170
-133 -284 -282 -284 -65 0 -138 28 -159 61 -7 11 -14 19 -17 19 -3 0 -5 -75
-5 -167 l0 -168 -70 0 -70 0 -5 463 -5 462 68 0 67 0 0 -46 0 -46 41 37 c23
20 55 43 73 51 46 20 163 17 211 -5z m750 0 c48 -22 100 -78 129 -140 18 -39
21 -65 21 -171 0 -114 -2 -130 -26 -180 -50 -107 -145 -170 -254 -170 -67 0
-136 26 -157 59 -7 12 -15 21 -19 21 -3 0 -5 -75 -5 -167 l1 -168 -72 -3 -73
-3 0 450 c0 247 -3 457 -6 466 -6 14 2 16 62 13 l69 -3 3 -43 3 -43 41 36 c22
20 54 43 72 51 46 20 163 17 211 -5z m1998 3 c56 -19 129 -81 161 -137 56 -97
58 -241 5 -347 -130 -259 -511 -225 -594 53 -53 180 33 373 192 432 52 19 179
19 236 -1z m687 -52 l0 -68 -52 0 c-66 0 -100 -21 -128 -78 -18 -38 -20 -61
-20 -244 l0 -202 -75 0 -75 0 0 325 0 325 65 0 65 0 1 -62 c0 -53 2 -60 12
-44 50 78 103 116 165 116 l42 0 0 -68z m502 25 c47 -27 82 -67 113 -127 13
-25 19 -59 19 -120 l1 -85 -217 -3 -218 -2 0 -23 c1 -30 33 -98 56 -119 54
-47 181 -63 277 -34 l46 14 10 -50 c6 -27 11 -51 11 -52 0 -2 -32 -12 -70 -21
-51 -12 -98 -16 -168 -13 -84 3 -104 8 -150 32 -112 62 -168 194 -150 352 13
121 98 237 194 268 75 24 190 16 246 -17z"/>
<path d="M3173 1567 c-12 -51 -38 -140 -57 -199 l-34 -108 120 0 c101 0 119 2
115 15 -12 29 -76 242 -93 305 -9 36 -20 68 -23 72 -3 4 -16 -34 -28 -85z"/>
<path d="M3955 1416 c-41 -18 -73 -56 -85 -97 -17 -57 -12 -219 8 -259 52
-105 200 -109 276 -7 17 23 21 46 24 135 3 96 1 112 -20 151 -13 25 -35 54
-50 64 -34 25 -113 32 -153 13z"/>
<path d="M4702 1413 c-68 -33 -98 -115 -89 -242 9 -137 54 -191 160 -191 64 0
110 26 141 80 18 29 21 52 21 140 0 94 -3 110 -25 149 -42 75 -131 102 -208
64z"/>
<path d="M6771 1439 c-75 -16 -129 -92 -138 -197 -15 -161 89 -288 207 -253
84 25 152 158 135 264 -10 58 -42 131 -70 157 -28 26 -86 39 -134 29z"/>
<path d="M7885 1419 c-42 -37 -65 -77 -65 -114 l0 -25 145 0 145 0 0 31 c0 80
-60 139 -142 139 -39 0 -54 -6 -83 -31z"/>
</g>
</svg>
