<?xml version="1.0" ?><svg style="enable-background:new 0 0 32 32;" version="1.1" viewBox="0 0 32 32" xml:space="preserve" xmlns="http://www.w3.org/2000/svg" xmlns:xlink="http://www.w3.org/1999/xlink"><style type="text/css">
	.st0{display:none;}
	.st1{display:inline;}
	.st2{fill:#0097E2;}
	.st3{fill:#3A3A3A;}
</style><g class="st0" id="grid"/><g id="icon"><g><path class="st3" d="M28.59,16l-1,1H2c-0.55,0-1-0.45-1-1s0.45-1,1-1h25.59L28.59,16z"/></g><g><g><path class="st2" d="M30.96,16.25c0,0.05-0.02,0.09-0.04,0.14c-0.05,0.12-0.12,0.23-0.21,0.32l-5,5C25.51,21.9,25.26,22,25,22     s-0.51-0.1-0.71-0.29c-0.39-0.39-0.39-1.03,0-1.42l3.3-3.29l1-1l-1-1l-3.3-3.29c-0.39-0.39-0.39-1.03,0-1.42     c0.39-0.39,1.03-0.39,1.42,0l5,5c0.09,0.09,0.16,0.2,0.21,0.32c0.02,0.05,0.04,0.09,0.04,0.14     C31.01,15.91,31.01,16.09,30.96,16.25z"/></g></g></g></svg>