<?xml version="1.0" encoding="UTF-8"?>
<!DOCTYPE svg PUBLIC "-//W3C//DTD SVG 1.1//EN" "http://www.w3.org/Graphics/SVG/1.1/DTD/svg11.dtd">
<!-- Creator: CorelDRAW 2020 (64-Bit) -->
<svg xmlns="http://www.w3.org/2000/svg" xml:space="preserve" width="2.6246mm" height="3.3866mm" version="1.1" style="shape-rendering:geometricPrecision; text-rendering:geometricPrecision; image-rendering:optimizeQuality; fill-rule:evenodd; clip-rule:evenodd"
viewBox="0 0 262.46 338.66"
 xmlns:xlink="http://www.w3.org/1999/xlink"
 xmlns:xodm="http://www.corel.com/coreldraw/odm/2003">
 <defs>
  <style type="text/css">
   <![CDATA[
    .fil0 {fill:#34BFC7}
   ]]>
  </style>
 </defs>
 <g id="design">
  <metadata id="CorelCorpID_0Corel-Layer"/>
  <path class="fil0" d="M184.44 168.48c-0.02,-0.04 -118.51,-111.34 -127.67,-120.5 -2.98,-3.42 -4.62,-7.81 -4.62,-12.34 0,-10.36 8.4,-18.76 18.76,-18.76 4.53,0 8.92,1.64 12.33,4.63l133.71 133.72c3.5,3.52 5.46,8.28 5.46,13.24 0,4.95 -1.96,9.71 -5.46,13.24l-133.79 133.69c-3.42,2.97 -7.8,4.62 -12.33,4.62 -10.36,0 -18.77,-8.41 -18.77,-18.77 0,-4.53 1.65,-8.91 4.62,-12.32 9.09,-9.09 128.21,-119.31 127.76,-120.45z"/>
 </g>
</svg>
