<?xml version="1.0" encoding="UTF-8"?>
<!DOCTYPE svg PUBLIC "-//W3C//DTD SVG 1.1//EN" "http://www.w3.org/Graphics/SVG/1.1/DTD/svg11.dtd">
<!-- Creator: CorelDRAW 2020 (64-Bit) -->
<svg xmlns="http://www.w3.org/2000/svg" xml:space="preserve" width="81px" height="60px" version="1.1" style="shape-rendering:geometricPrecision; text-rendering:geometricPrecision; image-rendering:optimizeQuality; fill-rule:evenodd; clip-rule:evenodd"
viewBox="0 0 81 60"
 xmlns:xlink="http://www.w3.org/1999/xlink"
 xmlns:xodm="http://www.corel.com/coreldraw/odm/2003">
 <defs>
  <style type="text/css">
   <![CDATA[
    .str0 {stroke:black;stroke-width:0.9;stroke-miterlimit:22.9256}
    .str1 {stroke:black;stroke-width:0.9;stroke-linecap:round;stroke-linejoin:round;stroke-miterlimit:22.9256}
    .fil4 {fill:none}
    .fil2 {fill:#282829}
    .fil1 {fill:#282829}
    .fil3 {fill:black;fill-rule:nonzero}
    .fil0 {fill:#3E5266;fill-rule:nonzero}
   ]]>
  </style>
 </defs>
 <g id="design">
  <metadata id="CorelCorpID_0Corel-Layer"/>
  <g id="_2329533819328">
   <g id="_2036401372208">
    <path id="bike-6-bike-6" class="fil0" d="M45.89 46.7c0.09,-0.24 -0.04,-0.51 -0.28,-0.6 -0.25,-0.09 -0.52,0.03 -0.61,0.28l-1.96 5.39 -0.89 0 0 0.95 2.81 0 0 -0.95 -0.92 0 1.85 -5.07zm1.18 -16.82l0 -0.64c0,-0.26 0.21,-0.47 0.47,-0.47l7.34 0c0.26,0 0.47,0.21 0.47,0.47l0 1.31c0,0.15 -0.07,0.28 -0.19,0.37 -0.06,0.05 -1.42,1.07 -3.84,1.21 -0.03,0.01 -0.06,0.01 -0.09,0.01 -0.2,0 -0.7,-0.03 -1.19,-0.31l-2.73 -1.54c-0.15,-0.08 -0.24,-0.24 -0.24,-0.41zm-10.19 15.93c0,5.8 -4.68,10.52 -10.45,10.52 -5.76,0 -10.45,-4.72 -10.45,-10.52 0,-5.81 4.69,-10.54 10.45,-10.54 1.44,0 2.82,0.3 4.07,0.83 -0.17,0.47 -0.34,0.92 -0.49,1.34 -1.1,-0.48 -2.31,-0.75 -3.58,-0.75 -4.98,0 -9.05,4.09 -9.05,9.12 0,5.02 4.07,9.11 9.05,9.11 4.98,0 9.04,-4.09 9.04,-9.11 0,-3.06 -1.5,-5.77 -3.8,-7.43l0.5 -1.37c2.83,1.89 4.71,5.12 4.71,8.8l0 0zm33.93 -1.9c-0.26,0.06 -0.5,-0.11 -0.55,-0.37 -1.01,-4.95 -5.23,-8.61 -10.19,-8.95l-1.49 0c-2.36,0.16 -4.52,1.06 -6.25,2.48 0.18,0.15 0.37,0.3 0.55,0.45 1.78,-1.4 4.02,-2.25 6.44,-2.25 5.77,0 10.46,4.73 10.46,10.54 0,5.8 -4.69,10.52 -10.46,10.52 -4.28,0 -7.98,-2.62 -9.58,-6.35 0.48,-0.02 0.99,-0.05 1.51,-0.08 1.49,2.97 4.55,5.02 8.07,5.02 5,0 9.05,-4.09 9.05,-9.11 0,-5.03 -4.05,-9.12 -9.05,-9.12 -2,0 -3.86,0.66 -5.36,1.79 1.66,1.54 3,3.14 3.97,4.43 0.12,0.16 0.24,0.32 0.35,0.47l1.14 0c1.42,0 2.57,1.17 2.57,2.59 0,1.26 -0.87,2.3 -2.08,2.54l0 0c-1.35,0.36 -4.38,0.68 -9.03,0.94l-1.47 0.08 -4.12 0.17 1.04 -2.83c0.03,-0.11 0.06,-0.22 0.06,-0.33 0,-0.14 -0.04,-0.27 -0.09,-0.39 -0.11,-0.23 -0.3,-0.41 -0.53,-0.5 -0.23,-0.08 -0.49,-0.07 -0.72,0.04 -0.23,0.1 -0.4,0.29 -0.49,0.53l-1.08 2.97c-0.88,-0.58 -1.44,-1.57 -1.44,-2.65l0.05 -0.58c0.08,-0.39 0.22,-0.76 0.43,-1.1 0.59,-0.92 1.58,-1.48 2.66,-1.48l11.91 0c-0.12,-0.15 -0.24,-0.31 -0.37,-0.47 -0.91,-1.16 -2.09,-2.52 -3.5,-3.83 -1.12,1.04 -1.98,2.35 -2.47,3.83l-1.47 0c0.52,-1.84 1.53,-3.48 2.88,-4.76 -0.19,-0.15 -0.37,-0.3 -0.55,-0.44 -1.46,1.4 -2.53,3.19 -3.06,5.2l-0.97 0c0.54,-2.23 1.69,-4.22 3.27,-5.78 -0.38,-0.27 -0.77,-0.53 -1.15,-0.78l-2.41 6.56 -1.15 0c-2.12,-0.59 -8.75,-2.95 -12.97,-10l-0.23 0.63c3.09,5.24 6.71,8.85 9.25,10.98 -0.18,0.27 -0.33,0.57 -0.43,0.88 -1.15,-0.94 -2.51,-2.18 -3.96,-3.75 0.47,1.3 0.73,2.7 0.73,4.16 0,1.04 -0.14,2.08 -0.4,3.09 -0.07,0.25 -0.32,0.4 -0.57,0.33 -0.25,-0.06 -0.4,-0.32 -0.34,-0.57 0.25,-0.93 0.37,-1.89 0.37,-2.85 0,-4.15 -2.25,-7.78 -5.58,-9.73l-1.69 4.61c-1.08,2.98 -4.05,5.38 -4.18,5.48 -0.2,0.17 -0.49,0.14 -0.65,-0.07 -0.07,-0.09 -0.11,-0.19 -0.11,-0.29 0,-0.14 0.06,-0.28 0.18,-0.38 0.03,-0.02 2.89,-2.34 3.88,-5.07 0,0 0.79,-2.17 1.73,-4.73 -1.43,-0.68 -3.04,-1.06 -4.73,-1.06l-0.02 -0.01c-0.88,0.01 -1.75,0.11 -2.59,0.32 -0.25,0.05 -0.51,-0.1 -0.57,-0.35 -0.06,-0.26 0.1,-0.51 0.35,-0.58 0.25,-0.05 0.51,-0.11 0.77,-0.15l-0.02 -0.18 6.33 0 -0.09 0.75c0.3,0.11 0.61,0.24 0.9,0.38 0.13,-0.38 0.27,-0.75 0.41,-1.13l0.02 0 0 -0.05c0.4,-1.1 0.8,-2.17 1.14,-3.12l-9.18 0 -0.13 -0.88 9.64 0c0.44,-1.22 0.75,-2.07 0.81,-2.21 -0.29,-0.28 -0.96,-0.96 -0.96,-0.96 -0.06,-0.05 -0.1,-0.12 -0.12,-0.2 -0.17,-0.57 -0.46,-1.69 -0.46,-2.59 0,-0.43 0.07,-0.82 0.25,-1.06 0.16,-0.22 0.4,-0.34 0.66,-0.34 0.03,0 0.05,0 0.08,0.01 0.02,0 0.04,-0.01 0.07,-0.01 0.03,0 0.06,0 0.09,0 0.01,0 0.03,0 0.06,0l4.01 0c0.26,0 0.47,0.21 0.47,0.47 0,0.26 -0.21,0.48 -0.47,0.48l-1.76 0c0.87,0.62 1.51,1.33 1.56,1.39 0.17,0.19 0.15,0.49 -0.04,0.67 -0.19,0.17 -0.49,0.15 -0.66,-0.05 -0.5,-0.56 -2.05,-2.01 -3.26,-2.01 -0.03,0 -0.05,0 -0.07,-0.01 -0.04,0.07 -0.06,0.2 -0.06,0.37 0,0.53 0.16,1.43 0.4,2.3 0.15,0.15 1.08,1.09 1.08,1.09 0.09,0.09 0.14,0.21 0.14,0.34 0,0.05 -0.01,0.11 -0.03,0.16l-1.6 4.36c4.12,7.45 11.28,9.81 13.02,10.29l3.55 -9.69c0,0 0.52,0.25 0.91,0.25l-1.04 2.82c0.53,0.33 1.04,0.68 1.52,1.04 0.96,-0.81 2.05,-1.47 3.22,-1.96 -0.14,-0.08 -0.23,-0.23 -0.23,-0.4 0,-0.26 0.21,-0.47 0.47,-0.47l3.54 0c0.26,-0.02 0.51,-0.03 0.77,-0.03 0.27,0 0.52,0.01 0.78,0.03l5.74 0c0.26,0 0.47,0.21 0.47,0.47 0,0.26 -0.21,0.47 -0.47,0.47l-1.8 0c3.57,1.54 6.32,4.76 7.13,8.76 0.06,0.26 -0.11,0.5 -0.36,0.56l0 0zm-47.12 -14.81l-0.14 -0.88 7.95 0 -0.14 0.88 -7.67 0zm7.88 -1.35l-8.08 0 -0.14 -0.88 8.35 0 -0.13 0.88zm-8.38 -1.98c0,0 0,-0.01 0,-0.01 0,-0.01 0,-0.02 0,-0.03 0.01,-0.02 0.01,-0.04 0.01,-0.05 0.01,-0.02 0.01,-0.03 0.02,-0.04 0.01,-0.01 0.02,-0.02 0.03,-0.03 0.01,-0.02 0.02,-0.03 0.03,-0.04 0.01,-0.01 0.02,-0.02 0.04,-0.02 0.01,-0.01 0.03,-0.01 0.04,-0.02 0.01,0 0.02,-0.01 0.03,-0.01 0,0 0.01,0 0.02,0 0,0 0.01,0 0.01,0l8.2 0c0.01,0 0.02,0 0.03,0 0,0 0.01,0 0.01,0 0.01,0 0.02,0.01 0.03,0.01 0.01,0.01 0.03,0.01 0.04,0.02 0.02,0 0.03,0.01 0.04,0.02 0.01,0.01 0.02,0.02 0.03,0.04 0.01,0.01 0.02,0.02 0.02,0.03 0.01,0.01 0.02,0.03 0.02,0.04 0.01,0.01 0.01,0.03 0.01,0.05 0.01,0.01 0.01,0.02 0.01,0.03 0,0 0,0.01 0,0.01 0,0.01 0,0.01 0,0.02l-0.09 0.61 -8.49 0 -0.09 -0.61c0,-0.01 0,-0.01 0,-0.02l0 0zm7.77 6.03l-6.87 0 -0.14 -0.88 0.48 0 6.19 0 0.47 0 -0.13 0.88 0 0zm-6.33 0.47l5.79 0 0.48 0 -0.13 0.88 -6.48 0 -0.13 -0.88 0.47 0 0 0z"/>
   </g>
   <path class="fil1" d="M46.3 46.15c-0.36,-0.76 -1.45,-0.72 -1.74,0.07l-1.08 2.97c-2.62,-1.7 -1.42,-5.81 1.7,-5.81l11.91 0 -3.87 -4.29c-1.12,1.03 -1.98,2.34 -2.47,3.82l-1.47 0c0.52,-1.84 1.53,-3.48 2.88,-4.76 -0.19,-0.15 -0.37,-0.3 -0.55,-0.44 -1.46,1.4 -2.53,3.19 -3.06,5.2l-0.97 0c0.54,-2.23 1.69,-4.22 3.27,-5.78 -0.38,-0.27 -0.77,-0.53 -1.15,-0.78l-2.41 6.56 -1.15 0c-2.12,-0.59 -8.75,-2.95 -12.97,-10l-0.23 0.63c3.09,5.24 6.71,8.85 9.25,10.98 -0.18,0.27 -0.33,0.57 -0.43,0.88 -1.15,-0.94 -2.51,-2.18 -3.96,-3.75 0.93,2.58 1.02,7.92 -0.24,7.58 -0.76,-0.2 0.03,-1.11 0.03,-3.42 0,-4.15 -2.25,-7.78 -5.58,-9.73 -1.74,4.74 -2.35,7.28 -5.87,10.09 -0.49,0.4 -1.06,-0.37 -0.58,-0.74 0.03,-0.02 2.89,-2.34 3.88,-5.07 0,0 0.79,-2.17 1.73,-4.73 -4.9,-2.33 -7.64,0.02 -7.91,-1.1l1.12 -0.73 -0.02 -0.18 6.33 0 -0.09 0.75c0.3,0.11 0.61,0.24 0.9,0.38 0.13,-0.38 0.27,-0.75 0.41,-1.13l0.02 0 1.15 -3.17 -9.2 0 -0.13 -0.88 9.65 0c0.44,-1.21 0.75,-2.07 0.81,-2.21l-1.08 -1.16c-0.4,-1.42 -1.17,-3.99 0.75,-3.99l4.01 0c0.62,0 0.61,0.95 0,0.95l-1.76 0c2.96,2.12 1.17,2.37 0.86,2.01 -0.85,-0.95 -1.78,-1.74 -3.33,-2.02l0.34 2.67 1.19 1.59 -1.6 4.36c4.12,7.45 11.28,9.81 13.02,10.29l3.55 -9.69c0,0 0.52,0.25 0.91,0.25l-1.04 2.82c0.53,0.33 1.04,0.68 1.52,1.04 0.96,-0.81 2.05,-1.47 3.21,-1.95l0.25 -0.88 10.83 0c0.63,0 0.62,0.94 0,0.94l-1.8 0c3.57,1.54 6.32,4.76 7.13,8.76 0.06,0.26 -0.11,0.51 -0.36,0.56 -0.26,0.06 -0.5,-0.11 -0.56,-0.37 -1.7,-8.32 -11.54,-11.68 -17.93,-6.47 0.19,0.15 0.38,0.3 0.56,0.45 6.83,-5.4 16.9,-0.49 16.9,8.29 0,5.8 -4.69,10.52 -10.46,10.52 -4.28,0 -7.98,-2.62 -9.58,-6.35 0.48,-0.02 0.99,-0.05 1.51,-0.08 4.28,8.52 17.12,5.45 17.12,-4.09 0,-7.5 -8.5,-11.75 -14.41,-7.33l4.31 4.9 1.15 0c3.07,0 3.54,4.53 0.49,5.13l-14.62 1.19 1.01 -3.55z"/>
   <path class="fil1" d="M32.17 37.01c2.83,1.89 4.71,5.12 4.71,8.8 0,5.8 -4.68,10.52 -10.45,10.52 -5.76,0 -10.45,-4.72 -10.45,-10.52 0,-7.57 7.69,-12.62 14.52,-9.71 -0.17,0.47 -0.34,0.92 -0.49,1.34 -5.9,-2.58 -12.63,1.78 -12.63,8.37 0,5.02 4.07,9.11 9.05,9.11 8.77,0 12.38,-11.41 5.24,-16.54l0.5 -1.37z"/>
   <polygon class="fil1" points="30.76,33.15 24.29,33.15 24.16,32.27 24.63,32.27 30.89,32.27 "/>
   <polygon class="fil1" points="30.96,31.8 24.09,31.8 23.95,30.92 31.09,30.92 "/>
   <polygon class="fil1" points="31.37,29.1 23.69,29.1 23.55,28.22 31.5,28.22 "/>
   <path class="fil1" d="M31.7 26.87l-8.35 0 0.14 0.88 8.08 0 0.13 -0.88zm-0.2 1.35l-7.95 0 0.14 0.88 7.68 0 0.13 -0.88 0 0zm1.9 1.35l-9.65 0 0.13 0.88 9.2 0 -1.15 3.17 -0.02 0c-0.14,0.38 -0.28,0.75 -0.41,1.13 -0.29,-0.14 -0.6,-0.27 -0.9,-0.38l0.09 -0.75 -6.33 0 0.02 0.18 -1.12 0.73c0.27,1.12 3.01,-1.23 7.91,1.1 -0.94,2.56 -1.73,4.73 -1.73,4.73 -0.99,2.73 -3.85,5.05 -3.88,5.07 -0.48,0.37 0.09,1.14 0.58,0.74 3.52,-2.81 4.13,-5.35 5.87,-10.09 3.33,1.95 5.58,5.58 5.58,9.73 0,2.31 -0.79,3.22 -0.03,3.42 1.26,0.34 1.17,-5 0.24,-7.58 1.45,1.57 2.81,2.81 3.96,3.75 0.1,-0.31 0.25,-0.61 0.43,-0.88 -2.54,-2.13 -6.16,-5.74 -9.25,-10.98l0.23 -0.63c4.22,7.05 10.85,9.41 12.97,10l1.15 0 2.41 -6.56c0.38,0.25 0.77,0.51 1.15,0.78 -1.58,1.56 -2.73,3.55 -3.27,5.78l0.97 0c0.53,-2.01 1.6,-3.8 3.06,-5.2 0.18,0.14 0.36,0.29 0.55,0.44 -1.35,1.28 -2.36,2.92 -2.88,4.76l1.47 0c0.49,-1.48 1.35,-2.79 2.47,-3.82l3.87 4.29 -11.91 0c-3.12,0 -4.32,4.11 -1.7,5.81l1.08 -2.97c0.29,-0.79 1.39,-0.83 1.74,-0.07l-1.01 3.55 14.62 -1.19c3.05,-0.6 2.58,-5.13 -0.49,-5.13l-1.15 0 -4.31 -4.9c5.91,-4.42 14.41,-0.17 14.41,7.33 0,9.54 -12.84,12.61 -17.12,4.09 -0.52,0.03 -1.03,0.06 -1.51,0.08 1.6,3.73 5.3,6.35 9.58,6.35 5.77,0 10.46,-4.72 10.46,-10.52 0,-8.78 -10.07,-13.69 -16.9,-8.29 -0.18,-0.15 -0.37,-0.3 -0.56,-0.45 6.39,-5.21 16.23,-1.85 17.93,6.47 0.06,0.26 0.3,0.43 0.56,0.37 0.25,-0.05 0.41,-0.3 0.36,-0.56 -0.81,-4 -3.56,-7.22 -7.13,-8.76l1.8 0c0.62,0 0.63,-0.94 0,-0.94l-10.83 0 -0.25 0.88c-1.16,0.48 -2.25,1.14 -3.21,1.95 -0.48,-0.36 -0.99,-0.71 -1.52,-1.04l1.04 -2.82c-0.39,0 -0.91,-0.25 -0.91,-0.25l-3.55 9.69c-1.74,-0.48 -8.9,-2.84 -13.02,-10.29l1.6 -4.36 -1.19 -1.59 -0.34 -2.67c1.55,0.28 2.48,1.07 3.33,2.02 0.31,0.36 2.1,0.11 -0.86,-2.01l1.76 0c0.61,0 0.62,-0.95 0,-0.95l-4.01 0c-1.92,0 -1.15,2.57 -0.75,3.99l1.08 1.16c-0.06,0.14 -0.37,1 -0.81,2.21zm-2.31 1.35l-7.14 0 0.14 0.88 6.87 0 0.13 -0.88 0 0zm-0.2 1.35l-6.26 0 -0.47 0 0.13 0.88 6.47 0 0.13 -0.88zm1.28 4.74l-0.5 1.37c7.14,5.13 3.53,16.54 -5.24,16.54 -4.98,0 -9.05,-4.09 -9.05,-9.11 0,-6.59 6.73,-10.95 12.63,-8.37 0.15,-0.42 0.32,-0.87 0.49,-1.34 -6.82,-2.91 -14.52,2.14 -14.52,9.71 0,5.8 4.69,10.52 10.45,10.52 5.77,0 10.45,-4.72 10.45,-10.52 0,-3.68 -1.88,-6.91 -4.71,-8.8zm10.87 14.76l-0.89 0 0 0.95 2.81 0 0 -0.95 -0.92 0 1.85 -5.07c0.21,-0.58 -0.67,-0.91 -0.89,-0.32l-1.96 5.39zm4.5 -23l-0.47 1.11 2.97 1.95c1.74,0.99 4.82,-0.68 5.12,-0.91 0.24,-0.18 0.48,-2.15 -0.28,-2.15l-7.34 0zm-24.26 -2.37l8.49 0 0.03 -0.79 -8.38 -0.09 -0.23 0.25 0.09 0.63z"/>
  </g>
  <path class="fil2" d="M17.68 15.62c-3.87,-0.37 -8.03,-3.04 -7.16,-7.12 0.3,-2.75 3.23,-5.06 5.91,-5.79 -0.16,-0.03 -0.31,-0.05 -0.47,-0.06 -4.52,-0.44 -8.56,2.64 -9.02,6.87 -0.47,4.23 2.82,8.01 7.34,8.45 3,0.29 5.79,-0.98 7.46,-3.09 -1.2,0.6 -2.6,0.88 -4.06,0.74z"/>
  <g id="_2329533810784">
   <g>
    <g>
     <g>
      <path class="fil3 str0" d="M52.58 4.28c0.01,0 0.03,0 0.03,0.01 1.45,0.01 2.63,0.97 2.83,2.22 1.12,0.1 2,0.95 2,1.99 0,1.06 -0.91,1.93 -2.08,2l0 0.01 -7.08 0 0 -0.01c-0.95,-0.06 -1.71,-0.77 -1.71,-1.64 0,-0.88 0.77,-1.6 1.74,-1.65 0.27,-0.58 0.84,-1.02 1.54,-1.17 0.38,-1.02 1.46,-1.76 2.73,-1.76l0 0zm0 0.11c-1.19,0 -2.24,0.68 -2.62,1.68l-0.02 0.06 -0.06 0.01c-0.66,0.14 -1.2,0.56 -1.46,1.11l-0.03 0.06 -0.08 0.01c-0.91,0.04 -1.62,0.72 -1.62,1.54 0,0.8 0.7,1.48 1.6,1.53l0.1 0.01 6.85 0 0 0 0.12 -0.01c1.1,-0.07 1.96,-0.9 1.96,-1.89 0,-0.97 -0.81,-1.79 -1.9,-1.88l-0.09 -0.01 -0.01 -0.08c-0.19,-1.21 -1.35,-2.13 -2.71,-2.14l-0.01 0c-0.01,0 -0.01,0 -0.02,0l0 0z"/>
     </g>
    </g>
   </g>
   <g>
   </g>
   <g>
   </g>
   <g>
   </g>
   <g>
   </g>
   <g>
   </g>
   <g>
   </g>
   <g>
   </g>
   <g>
   </g>
   <g>
   </g>
   <g>
   </g>
   <g>
   </g>
   <g>
   </g>
   <g>
   </g>
   <g>
   </g>
   <g>
   </g>
  </g>
  <g id="_2329533810736">
   <g>
    <path class="fil4 str1" d="M31.22 8.69c-1.34,0.34 -2.32,1.45 -2.32,2.76 0,1.58 1.43,2.86 3.2,2.86"/>
    <path class="fil4 str1" d="M31.22 8.69c0.27,-2.06 2.22,-3.65 4.58,-3.65 2.54,0 4.6,1.83 4.62,4.1"/>
    <path class="fil4 str1" d="M40.42 9.14c0.1,-0.01 0.19,-0.01 0.29,-0.01 1.59,0 2.89,1.16 2.89,2.59 0,1.43 -1.3,2.59 -2.89,2.59"/>
    <line class="fil4 str1" x1="40.71" y1="14.31" x2="32.1" y2= "14.31" />
   </g>
  </g>
  <g id="_2329533811936">
   <g>
    <path class="fil4 str1" d="M64.96 11.03c-1.34,0.34 -2.32,1.45 -2.32,2.76 0,1.58 1.43,2.86 3.2,2.86"/>
    <path class="fil4 str1" d="M64.96 11.03c0.27,-2.06 2.22,-3.65 4.59,-3.65 2.53,0 4.59,1.83 4.62,4.1"/>
    <path class="fil4 str1" d="M74.17 11.48c0.09,-0.01 0.18,-0.01 0.28,-0.01 1.6,0 2.89,1.16 2.89,2.59 0,1.43 -1.29,2.59 -2.89,2.59"/>
    <line class="fil4 str1" x1="74.45" y1="16.65" x2="65.84" y2= "16.65" />
   </g>
  </g>
 </g>
</svg>
