<svg fill="none" height="741" viewBox="0 0 2500 741" width="2500" xmlns="http://www.w3.org/2000/svg" xmlns:xlink="http://www.w3.org/1999/xlink"><linearGradient id="a" gradientUnits="userSpaceOnUse" x1="403.704" x2="92.9074" y1="161.426" y2="472.204"><stop offset="0" stop-color="#00a0ff"/><stop offset=".007" stop-color="#00a1ff"/><stop offset=".26" stop-color="#00beff"/><stop offset=".512" stop-color="#00d2ff"/><stop offset=".76" stop-color="#00dfff"/><stop offset="1" stop-color="#00e3ff"/></linearGradient><linearGradient id="b" gradientUnits="userSpaceOnUse" x1="626.556" x2="178.463" y1="370.519" y2="370.519"><stop offset="0" stop-color="#ffe000"/><stop offset=".409" stop-color="#ffbd00"/><stop offset=".775" stop-color="#ffa500"/><stop offset="1" stop-color="#ff9c00"/></linearGradient><linearGradient id="c" gradientUnits="userSpaceOnUse" x1="459.759" x2="38.3148" y1="413.019" y2="834.463"><stop offset="0" stop-color="#ff3a44"/><stop offset="1" stop-color="#c31162"/></linearGradient><linearGradient id="d" gradientUnits="userSpaceOnUse" x1="135.13" x2="323.333" y1="3.38889" y2="191.593"><stop offset="0" stop-color="#32a071"/><stop offset=".069" stop-color="#2da771"/><stop offset=".476" stop-color="#15cf74"/><stop offset=".801" stop-color="#06e775"/><stop offset="1" stop-color="#00f076"/></linearGradient><clipPath id="e"><path d="m0 0h2500v741h-2500z"/></clipPath><g clip-path="url(#e)"><path d="m2407.41 740.87h-2314.8174c-51.8519 0-92.59259237-40.74-92.59259237-92.592v-555.5558c0-51.8518 40.74069237-92.592561 92.59259237-92.592561h2314.8174c51.85 0 92.59 40.740761 92.59 92.592561v555.5558c0 51.852-40.74 92.592-92.59 92.592z" fill="#000"/><path d="m2407.41 14.9445c42.59 0 77.78 35.1851 77.78 77.7777v555.5558c0 42.592-35.19 77.778-77.78 77.778h-2314.8174c-42.5926 0-77.7778-35.186-77.7778-77.778v-555.5558c0-42.5926 35.1852-77.7777 77.7778-77.7777zm0-14.814861h-2314.8174c-51.8519 0-92.59259237 42.592561-92.59259237 92.592561v555.5558c0 51.852 40.74069237 92.592 92.59259237 92.592h2314.8174c51.85 0 92.59-40.74 92.59-92.592v-555.5558c0-50-40.74-92.592561-92.59-92.592561z" fill="#000"/><path d="m1261 302.037c-44.44 0-79.63 33.333-79.63 79.63 0 44.444 35.19 79.629 79.63 79.629s79.63-33.333 79.63-79.629c0-48.148-35.19-79.63-79.63-79.63zm0 125.926c-24.07 0-44.44-20.37-44.44-48.148s20.37-48.148 44.44-48.148 44.44 18.518 44.44 48.148c0 27.778-20.37 48.148-44.44 48.148zm-172.22-125.926c-44.45 0-79.63 33.333-79.63 79.63 0 44.444 35.18 79.629 79.63 79.629 44.44 0 79.63-33.333 79.63-79.629 0-48.148-35.19-79.63-79.63-79.63zm0 125.926c-24.08 0-44.45-20.37-44.45-48.148s20.37-48.148 44.45-48.148c24.07 0 44.44 18.518 44.44 48.148 0 27.778-20.37 48.148-44.44 48.148zm-205.558-101.852v33.333h79.63c-1.852 18.519-9.259 33.334-18.519 42.593-11.111 11.111-29.629 24.074-61.111 24.074-50 0-87.037-38.889-87.037-88.889s38.889-88.889 87.037-88.889c25.926 0 46.297 11.111 61.111 24.074l24.074-24.074c-20.37-18.518-46.296-33.333-83.333-33.333-66.667 0-124.074 55.556-124.074 122.222 0 66.667 57.407 122.222 124.074 122.222 37.037 0 62.963-11.111 85.185-35.185 22.223-22.222 29.63-53.703 29.63-77.778 0-7.407 0-14.814-1.852-20.37zm840.738 25.926c-7.4-18.518-25.92-50-66.66-50s-74.08 31.482-74.08 79.63c0 44.444 33.34 79.629 77.78 79.629 35.19 0 57.41-22.222 64.81-35.185l-25.92-18.518c-9.26 12.963-20.37 22.222-38.89 22.222s-29.63-7.408-38.89-24.074l105.56-44.445zm-107.4 25.926c0-29.63 24.07-46.296 40.74-46.296 12.96 0 25.92 7.407 29.63 16.666zm-87.04 75.926h35.18v-231.482h-35.18zm-55.56-135.185c-9.26-9.26-24.07-18.519-42.59-18.519-38.89 0-75.93 35.185-75.93 79.63 0 44.444 35.19 77.778 75.93 77.778 18.52 0 33.33-9.26 40.74-18.519h1.85v11.111c0 29.63-16.66 46.296-42.59 46.296-20.37 0-35.18-14.814-38.89-27.777l-29.63 12.963c9.26 20.37 31.48 46.296 70.37 46.296 40.74 0 74.08-24.074 74.08-81.482v-140.74h-33.34zm-40.74 109.259c-24.07 0-44.44-20.37-44.44-48.148s20.37-48.148 44.44-48.148c24.08 0 42.59 20.37 42.59 48.148s-18.51 48.148-42.59 48.148zm451.85-205.556h-83.33v231.482h35.19v-87.037h48.14c38.89 0 75.93-27.778 75.93-72.222 0-44.445-37.04-72.223-75.93-72.223zm1.86 111.112h-50v-79.63h50c25.92 0 40.74 22.222 40.74 38.889-1.86 20.37-16.67 40.741-40.74 40.741zm212.96-33.334c-25.93 0-51.85 11.111-61.11 35.185l31.48 12.963c7.41-12.963 18.52-16.666 31.48-16.666 18.52 0 35.19 11.111 37.04 29.629v1.852c-5.56-3.704-20.37-9.259-35.19-9.259-33.33 0-66.66 18.518-66.66 51.852 0 31.481 27.77 51.852 57.4 51.852 24.08 0 35.19-11.112 44.45-22.223h1.85v18.519h33.33v-88.889c-3.7-40.741-35.18-64.815-74.07-64.815zm-3.7 127.778c-11.12 0-27.78-5.556-27.78-20.37 0-18.519 20.37-24.074 37.03-24.074 14.82 0 22.23 3.703 31.49 7.407-3.71 22.222-22.23 37.037-40.74 37.037zm194.44-122.222-38.89 100h-1.85l-40.74-100h-37.04l61.11 140.74-35.18 77.778h35.18l94.45-218.518zm-311.11 148.148h35.18v-231.482h-35.18z" fill="#fff"/><path d="m192.593 139.019c-5.556 5.555-7.408 14.814-7.408 25.925v409.26c0 11.111 3.704 20.37 9.259 25.926l1.852 1.851 229.63-229.629v-3.704z" fill="url(#a)"/><path d="m500 450.13-75.926-75.926v-5.556l75.926-75.926 1.852 1.852 90.741 51.852c25.926 14.815 25.926 38.889 0 53.704z" fill="url(#b)"/><path d="m501.852 448.278-77.778-77.778-231.481 231.481c9.259 9.26 22.222 9.26 38.888 1.852z" fill="url(#c)"/><path d="m501.852 292.722-270.371-153.703c-16.666-9.26-29.629-7.408-38.888 1.851l231.481 229.63z" fill="url(#d)"/><path d="m500 446.426-268.519 151.852c-14.814 9.259-27.777 7.407-37.037 0l-1.851 1.852 1.851 1.851c9.26 7.408 22.223 9.26 37.037 0z" fill="#000" opacity=".2"/><path d="m192.593 598.278c-5.556-5.556-7.408-14.815-7.408-25.926v1.852c0 11.111 3.704 20.37 9.259 25.926v-1.852zm400-203.704-92.593 51.852 1.852 1.852 90.741-51.852c12.963-7.407 18.518-16.667 18.518-25.926 0 9.259-7.407 16.667-18.518 24.074z" fill="#000" opacity=".2"/><path d="m231.481 140.87 361.112 205.556c11.111 7.407 18.518 14.815 18.518 24.074 0-9.259-5.555-18.518-18.518-25.926l-361.112-205.555c-25.925-14.815-46.296-3.704-46.296 25.925v1.852c0-27.777 20.371-40.74 46.296-25.926z" fill="#fff" opacity=".2"/></g></svg>