<svg width="32" height="32" viewBox="0 0 32 32" fill="none" xmlns="http://www.w3.org/2000/svg">
<path d="M31.9844 15.9947C31.9844 18.2379 31.9392 20.4876 31.9973 22.7308C32.094 26.7016 29.598 29.7699 26.4182 31.1365C25.1412 31.6844 23.7996 31.9745 22.4129 31.9745C18.0722 31.9809 13.7251 32.0389 9.38441 31.9551C6.11438 31.8907 3.42482 30.5241 1.49635 27.8296C0.483732 26.4115 0 24.8 0 23.0531C0 18.4313 0 13.8159 0 9.19406C0 5.42311 1.83818 2.78667 5.10176 1.07202C6.52071 0.330723 8.06221 0.0148654 9.6682 0.00841936C13.8799 0.00841936 18.098 -0.0173649 22.3097 0.0213115C25.5798 0.0470957 28.308 1.29763 30.3203 3.92763C31.4426 5.39733 31.9844 7.0862 31.9844 8.94267C31.9844 11.289 31.9844 13.6418 31.9844 15.9947ZM2.37996 15.9947C2.37996 18.3604 2.37996 20.7196 2.37996 23.0853C2.37996 24.1425 2.62505 25.1352 3.17328 26.0312C4.61158 28.384 6.78515 29.5314 9.48115 29.5765C13.8089 29.641 18.1432 29.6023 22.4774 29.5894C23.5416 29.5894 24.5736 29.3702 25.5346 28.9126C28.1532 27.662 29.6173 25.6702 29.6044 22.6792C29.5786 18.1025 29.598 13.5258 29.598 8.94911C29.598 7.65345 29.2303 6.46738 28.4628 5.42311C26.9794 3.41839 24.9283 2.43214 22.4774 2.40636C18.1561 2.35479 13.8347 2.38702 9.5134 2.39346C8.59109 2.39346 7.70102 2.5804 6.83675 2.9027C4.46324 3.78581 2.25742 6.0226 2.36061 9.31654C2.43801 11.5469 2.37996 13.7708 2.37996 15.9947Z" fill="black"/>
<path d="M16.0282 22.8274C11.8681 22.8274 8.51427 19.5141 8.50782 15.3887C8.50137 11.3276 11.881 8.00147 16.0153 8.00147C20.1625 7.99503 23.5293 11.3148 23.5358 15.408C23.5358 19.4948 20.1754 22.821 16.0282 22.8274ZM16.0282 20.4424C18.8597 20.4424 21.1558 18.1798 21.1494 15.3951C21.1429 12.6362 18.8468 10.3801 16.0282 10.3801C13.1968 10.3801 10.8878 12.6297 10.8878 15.408C10.8942 18.1927 13.1968 20.4488 16.0282 20.4424Z" fill="black"/>
<path d="M24.4058 5.74512C25.2765 5.74512 25.986 6.48641 25.986 7.39531C25.9796 8.3042 25.2636 9.03906 24.3929 9.03261C23.5351 9.02616 22.8321 8.29131 22.8321 7.40176C22.8256 6.49286 23.5351 5.74512 24.4058 5.74512Z" fill="black"/>
</svg>
