<?xml version="1.0" encoding="UTF-8"?>
<!DOCTYPE svg PUBLIC "-//W3C//DTD SVG 1.1//EN" "http://www.w3.org/Graphics/SVG/1.1/DTD/svg11.dtd">
<!-- Creator: CorelDRAW 2020 (64-Bit) -->
<svg xmlns="http://www.w3.org/2000/svg" xml:space="preserve" width="7.7046mm" height="7.6198mm" version="1.1" style="shape-rendering:geometricPrecision; text-rendering:geometricPrecision; image-rendering:optimizeQuality; fill-rule:evenodd; clip-rule:evenodd"
viewBox="0 0 770.46 761.98"
 xmlns:xlink="http://www.w3.org/1999/xlink"
 xmlns:xodm="http://www.corel.com/coreldraw/odm/2003">
 <defs>
  <style type="text/css">
   <![CDATA[
    .fil0 {fill:#34BFC7}
   ]]>
  </style>
 </defs>
 <g id="design">
  <metadata id="CorelCorpID_0Corel-Layer"/>
  <path class="fil0" d="M36.43 381.89c0,-10.36 8.4,-18.76 18.76,-18.75l363.39 -0.01 -101.7 -101.69c-2.98,-3.42 -4.62,-7.81 -4.62,-12.34 0,-10.36 8.4,-18.76 18.76,-18.76 4.53,0 8.92,1.64 12.33,4.63l133.71 133.72c3.5,3.52 5.46,8.28 5.46,13.24 0,4.95 -1.96,9.71 -5.46,13.24l-133.79 133.69c-3.42,2.97 -7.8,4.62 -12.33,4.62 -10.36,0 -18.77,-8.41 -18.77,-18.77 0,-4.53 1.65,-8.91 4.62,-12.32l101.71 -101.73 -363.31 -0.01c-10.36,0 -18.76,-8.4 -18.76,-18.76zm191.28 -168.53l0.01 -76.31c0.04,-41.69 33.83,-75.48 75.51,-75.54l312.03 0c41.69,0.04 75.5,33.85 75.54,75.54l0 499.4c-0.04,41.69 -33.85,75.5 -75.54,75.54l-312.07 0c-41.69,-0.05 -75.49,-33.85 -75.52,-75.55l0 -74.45c0,-0.18 -0.01,-0.38 -0.01,-0.56 0,-10.36 8.4,-18.76 18.76,-18.76 10.36,0 18.77,8.4 18.77,18.76 0,0.18 -0.01,0.38 -0.01,0.57l0 74.45c0,21.02 17.05,38.06 38.05,38.06l312.03 0c21.02,0 38.06,-17.04 38.06,-38.05l0 -499.41c0,-21.01 -17.04,-38.06 -38.06,-38.06l-311.97 0c-21.02,0 -38.06,17.05 -38.07,38.06l0.01 76.31c-0.3,10.14 -8.61,18.21 -18.75,18.21 -10.14,0 -18.46,-8.07 -18.77,-18.21z"/>
 </g>
</svg>
