<?xml version="1.0" encoding="UTF-8"?>
<!DOCTYPE svg PUBLIC "-//W3C//DTD SVG 1.1//EN" "http://www.w3.org/Graphics/SVG/1.1/DTD/svg11.dtd">
<!-- Creator: CorelDRAW 2020 (64-Bit) -->
<svg xmlns="http://www.w3.org/2000/svg" xml:space="preserve" width="18.6358mm" height="9.9152mm" version="1.1" style="shape-rendering:geometricPrecision; text-rendering:geometricPrecision; image-rendering:optimizeQuality; fill-rule:evenodd; clip-rule:evenodd"
viewBox="0 0 1863.58 991.52"
 xmlns:xlink="http://www.w3.org/1999/xlink"
 xmlns:xodm="http://www.corel.com/coreldraw/odm/2003">
 <defs>
  <style type="text/css">
   <![CDATA[
    .fil1 {fill:#34BFC7;fill-rule:nonzero}
    .fil0 {fill:#424B4C;fill-rule:nonzero}
   ]]>
  </style>
 </defs>
 <g id="design">
  <metadata id="CorelCorpID_0Corel-Layer"/>
  <path class="fil0" d="M834.33 447.5c-5.92,0 -10.79,-4.83 -10.79,-10.79 0,-5.97 4.87,-10.8 10.79,-10.8 5.97,0 10.83,4.83 10.83,10.8 0,5.96 -4.86,10.79 -10.83,10.79zm16.69 -10.79c0,-9.18 -7.48,-16.66 -16.69,-16.66 -9.17,0 -16.65,7.48 -16.65,16.66 0,2.36 0.5,4.58 1.38,6.59 -10.97,22.05 -33.9,36.52 -58.81,36.52 -36.16,0 -65.62,-29.46 -65.62,-65.66 0,-36.19 29.46,-65.61 65.62,-65.61 13.79,0 27.27,4.37 38.38,12.38l-5.04 5.18c-1.45,1.45 -0.99,2.9 1.06,3.22l27.34 3.88c2.04,0.28 3.45,-1.13 3.1,-3.18l-4.44 -27.27c-0.32,-2.01 -1.77,-2.47 -3.21,-1.02l-4.34 4.41c-15.03,-11.71 -33.69,-18.14 -52.85,-18.14 -47.48,0 -86.15,38.67 -86.15,86.15 0,47.52 38.67,86.15 86.15,86.15 32.46,0 62.3,-18.66 76.84,-47.2 7.9,-1.31 13.93,-8.15 13.93,-16.4z"/>
  <path class="fil0" d="M1039.8 335.57c0,-5.96 4.87,-10.8 10.79,-10.8 5.97,0 10.8,4.84 10.8,10.8 0,5.92 -4.83,10.79 -10.8,10.79 -5.92,0 -10.79,-4.87 -10.79,-10.79zm26.28 -6.07c-2.43,-6.21 -8.43,-10.58 -15.49,-10.58 -9.17,0 -16.65,7.48 -16.65,16.65 0,9.17 7.48,16.65 16.65,16.65 3.57,0 6.85,-1.13 9.56,-3.03 28.97,7.05 50.59,33.23 50.59,64.34 0,36.55 -29.74,66.25 -66.25,66.25 -36.55,0 -66.29,-29.7 -66.29,-66.25 0,-8.39 1.59,-16.68 4.66,-24.41l6.1 3.7c1.73,1.1 3.07,0.29 2.86,-1.76l-2.36 -27.55c-0.21,-2.05 -1.87,-3.07 -3.78,-2.3l-25.57 10.48c-1.91,0.81 -2.01,2.33 -0.29,3.39l5.33 3.24c-4.9,11.01 -7.48,23.04 -7.48,35.21 0,47.84 38.91,86.79 86.82,86.79 47.8,0 86.78,-38.95 86.78,-86.79 0,-40.39 -27.76,-74.4 -65.19,-84.03z"/>
  <path class="fil1" d="M821.31 322.6c-5.96,0 -10.8,-4.84 -10.8,-10.8 0,-5.96 4.84,-10.79 10.8,-10.79 5.96,0 10.79,4.83 10.79,10.79 0,5.96 -4.83,10.8 -10.79,10.8zm181.54 -115.61c-10.94,0 -21.45,3.88 -29.74,10.65l-3.81 -5.15c-1.2,-1.65 -2.72,-1.41 -3.32,0.57l-8.25 26.35c-0.6,1.98 0.56,3.56 2.61,3.56l27.66 0c2.04,0 2.75,-1.37 1.51,-3.03l-4.27 -5.75c4.8,-4.3 10.98,-6.67 17.61,-6.67 14.6,0 26.46,11.86 26.46,26.46 0,13.72 -10.3,25.05 -23.96,26.35 -1.16,0.07 -5.11,-0.31 -8.29,-0.81l-65.51 -12.27c-8.04,-1.66 -16.3,-2.47 -24.52,-2.47 -30.26,0 -59.09,11.14 -81.42,30.97 -1.37,-0.39 -2.82,-0.6 -4.3,-0.6 -9.21,0 -16.65,7.48 -16.65,16.65 0,9.21 7.44,16.65 16.65,16.65 9.03,0 16.4,-7.23 16.65,-16.19 18.73,-17.25 43.29,-26.99 69.07,-26.99 6.88,0 13.8,0.71 20.5,2.08l65.9 12.35 0.21 0.04c2.05,0.31 9.14,1.44 13.62,0.98 24.27,-2.25 42.58,-22.36 42.58,-46.74 0,-25.93 -21.1,-46.99 -46.99,-46.99z"/>
  <path class="fil1" d="M1046.41 412.96c-5.96,0 -10.79,-4.83 -10.79,-10.79 0,-5.93 4.83,-10.76 10.79,-10.76 5.96,0 10.8,4.83 10.8,10.76 0,5.96 -4.84,10.79 -10.8,10.79zm0.25 -27.41l-27.66 -34.71 -0.17 -0.25c-0.89,-1.02 -8.75,-10.33 -15.03,-14.88 -15.49,-11.43 -33.55,-17.43 -52.21,-17.43 -16.3,0 -33.09,4.23 -47.21,11.96 -12.98,7.05 -26.42,17.11 -42.01,28.75 -18.45,13.76 -39.37,29.39 -64.88,44.06 -4.76,2.75 -10.44,4.23 -16.26,4.23 -5.22,0 -10.27,-1.83 -13.97,-4.97l5.47 -3.14c1.8,-1.02 1.69,-2.54 -0.18,-3.35l-25.26 -11.15c-1.9,-0.85 -3.63,0.18 -3.88,2.22l-3.07 27.45c-0.21,2.05 1.06,2.89 2.86,1.83l5.75 -3.31c7.62,9.35 19.47,14.92 32.28,14.92 9.42,0 18.59,-2.4 26.49,-6.95 26.57,-15.27 48.02,-31.29 66.93,-45.4 14.95,-11.18 27.86,-20.82 39.54,-27.17 11.15,-6.13 24.45,-9.49 37.4,-9.49 14.25,0 28.08,4.66 40.07,13.45 3.21,2.36 8.64,8.25 11.4,11.5l27.27 34.25c-0.36,1.34 -0.57,2.75 -0.57,4.2 0,9.21 7.48,16.69 16.65,16.69 9.18,0 16.65,-7.48 16.65,-16.69 0,-9.07 -7.33,-16.48 -16.4,-16.62z"/>
  <path class="fil0" d="M952.78 703.61c-3.25,3.45 -7.2,9.31 -12.14,17.92 -4.06,7.19 -7.16,11.99 -9.42,14.67 -3.53,4.34 -7.23,6.53 -11.04,6.53 -0.95,0 -1.94,-0.21 -2.82,-0.74 -0.96,-0.53 -1.66,-1.2 -2.16,-2.19 -0.49,-0.92 -0.74,-1.87 -0.74,-2.89l0 -41.77 -10.12 0 0 41.77c0,2.75 0.7,5.47 2.15,8.04 1.41,2.54 3.35,4.55 5.86,5.93 2.5,1.37 5.15,2.05 7.83,2.05 6.28,0 12.06,-2.86 17.25,-8.51 1.59,-1.73 3.35,-4.02 5.36,-6.98l2.4 -3.53 2.36 3.53c1.98,3 3.71,5.29 5.26,6.95 4.69,5.08 9.81,7.9 15.35,8.46l1.58 0.15 0 -10.16 -1.2 -0.22c-3.28,-0.53 -6.45,-2.75 -9.59,-6.63 -1.73,-1.97 -4.09,-5.54 -7.06,-10.58l-0.91 -1.48 0.91 -1.48c2.93,-4.87 5.29,-8.44 7.06,-10.52 3.1,-3.77 6.31,-5.96 9.59,-6.49l1.2 -0.18 0 -10.19 -1.55 0.14c-5.61,0.57 -10.79,3.39 -15.41,8.4z"/>
  <path class="fil0" d="M874.09 744.21c-1.45,-0.95 -2.19,-2.58 -2.19,-4.87l0 -31.29c0,-6 -2.68,-10.44 -7.16,-11.93 -0.71,-0.24 -2.08,-0.6 -8.15,-0.88l-3.6 -0.03 0 7.51c0,0 4.2,-0.03 5.61,0.39 0.5,0.18 0.95,0.49 0.95,0.49 1.45,0.96 2.19,2.61 2.19,4.91l0 31.29c0,5.96 2.68,10.41 7.16,11.89 0.88,0.28 2.05,0.6 7.55,0.84l4.8 0.07 0 -7.4c0,0 -4.76,-0.04 -6.35,-0.57 -0.14,-0.07 -0.81,-0.42 -0.81,-0.42z"/>
  <path class="fil0" d="M1071.32 739.21l-0.39 0.88c-0.24,0.6 -0.6,1.13 -1.09,1.56 -1.09,1.02 -2.19,1.2 -3.63,1.2 -0.21,0 -0.53,0 -0.92,0l-48.3 0 -2.61 -0.22c-3.24,-0.52 -6.45,-2.75 -9.59,-6.63 -1.73,-1.97 -4.09,-5.57 -6.99,-10.48 -0.31,-0.63 -0.67,-1.48 -0.7,-1.62 0.03,-0.24 0.35,-0.95 0.63,-1.48 2.93,-4.87 5.29,-8.4 7.02,-10.48 3.67,-4.37 7.41,-6.59 11.22,-6.59l14.92 0c3.81,0 7.55,2.22 11.22,6.63 0.71,0.84 1.59,2.01 2.47,3.31l2.61 4.7 -29.77 -0.04 -5.29 8.57 43.71 0c1.76,0 3.17,-1.3 3.52,-3.24 0.18,-0.99 -0.07,-1.98 -0.38,-3.07 -1.42,-4.9 -4.98,-12.35 -10.73,-18.59 -5.22,-5.61 -11.04,-8.5 -17.36,-8.5l-14.92 0c-6.35,0 -12.17,2.89 -17.35,8.5 -2.02,2.11 -4.1,5.18 -6.95,9.7l-0.15 0.18c-0.17,0.24 -4.09,5.71 -3.88,11.5 0.18,5.04 4.03,11.04 5.22,12.77 1.52,2.22 3.18,3.91 4.63,5.39l0.1 0.11c0.39,0.39 0.78,0.78 1.06,1.09 4.87,5.29 10.23,8.15 16.05,8.51l2.01 0.21 0.14 0 48.58 0c8.68,0 13.76,-4.1 15.1,-12.17l0.28 -1.7 -9.49 0z"/>
  <path class="fil0" d="M826.34 719.54l-3.18 -0.32 -2.08 0c0,0 0.78,-0.56 1.56,-1.34 1.19,-1.23 1.62,-4.44 1.62,-5.75 0,-4.62 -1.62,-8.6 -4.83,-11.89 -3.43,-3.42 -7.34,-5.15 -11.79,-5.15l-27.76 0.07c-0.74,-0.03 -4.09,-0.03 -4.13,-0.03 -6.95,0 -11.71,2.65 -15.38,8.61 -0.74,1.13 -1.55,2.4 -2.47,3.84 -2.33,3.5 -5.19,7.87 -8.64,13.94 -4.06,7.12 -7.2,12.03 -9.39,14.6 -2.99,3.67 -6.13,5.82 -9.45,6.42l-0.6 0.14 -5.33 8.86 2.01 0.42c1.06,0.21 2.12,0.32 3.25,0.32l0 0 1.62 -0.04c1.34,-0.07 2.86,-0.28 4.62,-0.7 3.88,-0.88 7.27,-4.09 10.09,-7.13 1.24,-1.37 2.65,-3.21 4.24,-5.5l19.08 -31.47c0.35,-0.56 0.95,-1.3 1.66,-1.83 0.95,-0.71 1.9,-0.67 1.94,-0.67l33.55 0c0,0 0.53,0 0.74,0 3.99,0 7.3,3.24 7.3,7.26 0,4.13 -4.37,7.31 -7.19,7.24 -0.43,0 -0.92,0.07 -1.17,0.03l-29.67 -0.03 -5.32 8.96 52.67 0c3.98,0 7.23,3.28 7.23,7.3 0,4.06 -3.25,7.27 -7.23,7.27 -0.25,0 -2.37,0.03 -2.37,0.03l-47.98 0.07c-1.41,0 -2.85,-0.49 -4.05,-1.41l-0.43 -0.28 -12.13 0 0.81 1.97c0.74,1.91 1.8,3.57 3.21,5.01 3.1,3.18 7.02,4.59 12.59,4.59l50.27 0.04c4.41,0 8.37,-1.77 11.75,-5.23 3.25,-3.28 4.84,-7.33 4.84,-12.03 0,-4.65 -1.59,-8.71 -4.84,-11.99 -2.43,-2.47 -5.36,-3.81 -9.24,-4.2z"/>
  <path class="fil0" d="M1113.97 592.02l42.54 -0.04 -11.28 -19.12c0,0 -31.12,-0.03 -31.12,-0.07 -0.42,0 -1.83,0.11 -1.83,0.11l0 0.03c-4.38,0.43 -8.15,1.84 -11.26,4.06 -3.56,-2.54 -8.01,-4.06 -13.12,-4.2 0,0.04 -3.95,0 -3.95,0.04l-38.38 0.03 11.39 19.12 27.66 0.04c0,0.03 3.39,0 3.39,0 2.01,0.14 3.42,1.94 3.45,3.81l0 21.17 0.14 6.45c1.73,15.59 14.4,27.02 29.88,27.1l3 0.1 16.44 0 0 -19.08 -15.13 0c0,0 -4.02,-0.04 -4.13,-0.04 -5.57,0 -10.62,-4.2 -11.08,-9.77 -0.03,-0.39 0,-1.59 0,-1.59l0 -24.31 -0.03 -0.03c-0.04,-1.98 1.62,-3.63 3.42,-3.81z"/>
  <path class="fil0" d="M683.95 631.04c-3.49,0 -7.02,-2.51 -9.13,-4.77 -3.92,-4.23 -10.23,-14.95 -10.23,-14.95l-8.93 -14.75c-8.82,-14.04 -18.1,-24.52 -32.81,-24.52l-0.03 0 -0.04 0c-14.74,0 -24.02,10.48 -32.84,24.52l-8.89 14.75c0,0 -6.35,10.72 -10.27,14.95 -2.11,2.26 -5.68,4.77 -9.13,4.77l-0.04 0 -0.03 0c-0.92,0 -1.84,-0.18 -2.72,-0.46l-10.41 17.5c3.88,2.08 8.22,3.28 13.13,3.28l0.03 0 0.04 0c14.74,0 24.02,-10.48 32.84,-24.52l9.24 -15.52c4.02,-6.85 6,-9.95 9.92,-14.19 2.11,-2.25 5.64,-4.76 9.17,-4.76 3.49,0 7.02,2.51 9.14,4.76 3.91,4.24 5.89,7.34 9.91,14.19l0.53 0.49 -2.51 -0.28 -7.23 -0.04c-5.96,0.32 -11.29,1.77 -15.52,6.07 -4.38,4.48 -7.13,10.76 -7.16,17.46l19.26 0c0,0 -0.11,-1.97 0.88,-3.1 0.74,-0.85 1.34,-1.13 2.44,-1.2l21.02 -0.04c8.11,12.07 17,20.64 30.34,20.68l0.03 0 0 0 0 0 0.04 0c4.9,0 9.21,-1.2 13.09,-3.28l-10.41 -17.5c-0.92,0.28 -1.8,0.46 -2.72,0.46z"/>
  <path class="fil0" d="M837.92 611.35c0,0 0.03,-0.04 0.03,-0.04 0,0 -0.03,0 -0.03,0.04zm-0.21 0.32c0.03,-0.04 0.03,-0.04 0.03,-0.07 0,0.03 0,0.03 -0.03,0.07zm-0.43 0.7c0.04,-0.07 0.11,-0.18 0.18,-0.25 -0.07,0.07 -0.14,0.18 -0.18,0.25zm-0.39 0.67c0.08,-0.14 0.15,-0.21 0.22,-0.35 -0.07,0.14 -0.14,0.21 -0.22,0.35zm-0.67 1.06c0.11,-0.14 0.18,-0.28 0.29,-0.42 -0.11,0.14 -0.18,0.28 -0.29,0.42zm-0.52 0.92c0.07,-0.18 0.17,-0.36 0.28,-0.5 -0.11,0.14 -0.21,0.32 -0.28,0.5zm-0.85 1.3c0.18,-0.28 0.35,-0.56 0.53,-0.84 -0.18,0.28 -0.35,0.56 -0.53,0.84zm-0.67 1.06c0.1,-0.21 0.25,-0.42 0.35,-0.6 -0.1,0.18 -0.25,0.39 -0.35,0.6zm-0.95 1.41c0.24,-0.32 0.45,-0.67 0.67,-0.99 -0.22,0.32 -0.43,0.67 -0.67,0.99zm-0.71 1.1c0.14,-0.18 0.25,-0.39 0.39,-0.6 -0.14,0.21 -0.25,0.42 -0.39,0.6zm229.69 11.39c-4.26,0.04 -6.73,-2.75 -8.85,-5.01 -3.92,-4.23 -10.23,-14.96 -10.23,-14.96l-8.93 -14.74c-8.82,-14.04 -18.09,-24.52 -32.84,-24.52l-0.04 0 -0.03 0c-14.75,0 -24.06,10.48 -32.88,24.52l-8.92 14.74c0,0 -6.28,10.73 -10.2,14.96 -1.91,2.05 -4.8,4.66 -7.94,5.12 0,0 -0.63,-0.04 -0.81,-0.04l0 0c-3.39,-0.42 -6.67,-3.6 -8.68,-5.71 -3.91,-4.17 -10.23,-14.82 -10.23,-14.82l-8.92 -14.61c-8.82,-13.9 -18.14,-24.27 -32.88,-24.27l-0.04 0c-14.74,0 -24.06,10.48 -32.88,24.52l-3.63 5.96 -3.74 -6.21c-8.82,-13.9 -18.13,-24.27 -32.88,-24.27l-0.03 0 -0.04 0c-14.78,0 -24.02,10.48 -32.84,24.52l-8.93 14.75c0,0 -6.31,10.72 -10.23,14.92 -2.08,2.26 -5.57,5.22 -8.96,5.33l-26.63 0c-2.23,-0.14 -3.95,-1.87 -4.27,-4.06 -0.11,-0.81 -0.11,-3.32 -0.11,-3.32l-0.03 -27.8 0 0c0,-0.03 0,-0.1 0,-0.17l0 -0.21 -0.04 0c-0.28,-12.46 -8.96,-22.76 -22.65,-23.11 -0.03,19.58 0.04,19.44 0.04,19.23 1.9,0.28 3.39,1.48 3.53,3.45l0.03 3.25 -0.03 25.96 0.07 2.79c0.28,12.7 10.65,22.93 23.46,23.04l1.8 0.03 24.62 0.04 0.03 0 0.6 0 0.04 -0.04c14.39,-0.28 23.49,-9.98 32.24,-23.81l9.21 -15.52c4.02,-6.85 6,-9.95 9.91,-14.18 2.12,-2.26 5.68,-4.77 9.14,-4.77l0.04 0 0 -0.21 0.03 0c3.49,0 7.02,2.47 9.14,4.73 3.91,4.2 5.89,7.27 9.91,14.04l6.07 10.09c0.14,-0.18 0.28,-0.39 0.42,-0.57 -1.51,2.23 -3.1,4.38 -4.41,5.79 -2.15,2.29 -5.68,4.8 -9.17,4.8l-0.03 0 0 20.32 0 0c14.78,0 24.06,-10.48 32.91,-24.52l9.21 -15.52c4.02,-6.85 5.99,-9.95 9.91,-14.18 2.12,-2.26 5.68,-4.77 9.17,-4.77l0 0 0.04 0c3.49,0 7.05,2.26 9.17,4.52 3.92,4.2 5.89,7.27 9.91,14.04l9.21 15.38c8.61,13.58 17.67,24.69 31.86,25.22 0.31,0 1.05,0 1.05,0 0,0 0.85,-0.03 1.17,-0.07 13.65,-0.84 22.37,-11.07 30.8,-24.51l9.2 -15.53c4.03,-6.84 6.04,-9.95 9.92,-14.18 2.15,-2.26 5.68,-4.76 9.17,-4.76l0.03 0 0.04 0c3.46,0 7.02,2.5 9.17,4.76 3.88,4.23 5.89,7.34 9.88,14.18l0.56 0.53 -2.15 -0.35 -7.69 0c-5.96,0.32 -11.25,1.76 -15.49,6.07 -4.37,4.48 -7.12,10.76 -7.16,17.46l19.23 0c0,0 -0.07,-1.98 0.88,-3.1 0.71,-0.85 1.38,-1.13 2.47,-1.2l21.1 -0.04c8.08,12.07 16.97,20.67 30.34,20.67l0.03 0 1.77 0 11.92 -20.07 -13.69 0 -0.32 0z"/>
  <path class="fil0" d="M1243.99 572.81c-5.29,0 -10.2,2.23 -14.5,6.67 -2.47,2.51 -5.47,6.74 -9.21,12.88 -1.13,1.83 -2.18,3.49 -3.14,4.9 -0.38,0.6 -0.81,1.24 -1.2,1.84 -0.95,1.37 -1.8,2.47 -2.43,3.21 -4.55,5.15 -8.61,5.04 -13.05,0 -1.52,-1.73 -3.85,-5.08 -6.81,-9.95 -3.71,-6.14 -6.7,-10.34 -9.17,-12.88 -4.34,-4.44 -9.21,-6.67 -14.54,-6.67l-2.15 0 -12.24 0 11.25 19.2 1.98 0c0.77,0.14 1.8,0.35 2.29,0.81 1.52,1.51 3.32,3.74 6.28,8.64 3.56,5.82 6.39,9.88 8.64,12.49 4.27,4.8 9,7.9 14.26,9.35 -0.75,0.95 -1.42,1.76 -2.05,2.47 -4.41,5.01 -7.34,5.04 -11.54,5.78 -4.02,0.71 -14.32,0.88 -14.32,0.88l10.58 18.95 2.16 0c9.66,-0.04 17.85,-3.95 25.33,-11.64 4.44,-4.45 9.84,-12.07 16.54,-23.22 1.34,-2.22 2.65,-4.3 3.78,-6.1 1.69,-2.33 3.66,-5.36 5.85,-8.96 2.96,-4.9 5.29,-8.08 6.74,-9.67 0.85,-0.98 2.86,-0.95 2.86,-0.95l10.65 -18.03 -12.84 0z"/>
 </g>
</svg>
