<?xml version="1.0" encoding="UTF-8"?>
<!DOCTYPE svg PUBLIC "-//W3C//DTD SVG 1.1//EN" "http://www.w3.org/Graphics/SVG/1.1/DTD/svg11.dtd">
<!-- Creator: CorelDRAW 2020 (64-Bit) -->
<svg xmlns="http://www.w3.org/2000/svg" xml:space="preserve" width="288px" height="143px" version="1.1" style="shape-rendering:geometricPrecision; text-rendering:geometricPrecision; image-rendering:optimizeQuality; fill-rule:evenodd; clip-rule:evenodd"
viewBox="0 0 288 143"
 xmlns:xlink="http://www.w3.org/1999/xlink"
 xmlns:xodm="http://www.corel.com/coreldraw/odm/2003">
 <defs>
  <style type="text/css">
   <![CDATA[
    .fil0 {fill:none;fill-rule:nonzero}
    .fil2 {fill:#34BFC7;fill-rule:nonzero}
    .fil1 {fill:#424B4C;fill-rule:nonzero}
   ]]>
  </style>
 </defs>
 <g id="design">
  <metadata id="CorelCorpID_0Corel-Layer"/>
  <line class="fil0" x1="236.83" y1="34.27" x2="143.87" y2= "142.05" />
  <line class="fil0" x1="96.24" y1="1.3" x2="55.4" y2= "82.04" />
  <path class="fil1" d="M131.12 64.17c-1.52,0 -2.78,-1.21 -2.78,-2.7 0,-1.49 1.26,-2.69 2.78,-2.69 1.54,0 2.79,1.2 2.79,2.69 0,1.49 -1.25,2.7 -2.79,2.7zm4.3 -2.7c0,-2.29 -1.93,-4.15 -4.3,-4.15 -2.36,0 -4.29,1.86 -4.29,4.15 0,0.59 0.13,1.15 0.36,1.65 -2.83,5.5 -8.73,9.11 -15.15,9.11 -9.31,0 -16.9,-7.35 -16.9,-16.38 0,-9.04 7.59,-16.38 16.9,-16.38 3.55,0 7.03,1.09 9.89,3.09l-1.3 1.29c-0.38,0.36 -0.26,0.73 0.27,0.81l7.04 0.97c0.53,0.06 0.89,-0.29 0.8,-0.8l-1.14 -6.8c-0.08,-0.51 -0.46,-0.62 -0.83,-0.26l-1.12 1.1c-3.87,-2.92 -8.67,-4.53 -13.61,-4.53 -12.23,0 -22.19,9.66 -22.19,21.51 0,11.86 9.96,21.5 22.19,21.5 8.36,0 16.05,-4.66 19.79,-11.78 2.04,-0.33 3.59,-2.04 3.59,-4.1z"/>
  <path class="fil1" d="M184.04 36.23c0,-1.49 1.25,-2.69 2.78,-2.69 1.54,0 2.78,1.2 2.78,2.69 0,1.48 -1.24,2.69 -2.78,2.69 -1.53,0 -2.78,-1.21 -2.78,-2.69zm6.77 -1.51c-0.63,-1.55 -2.17,-2.64 -3.99,-2.64 -2.36,0 -4.29,1.86 -4.29,4.15 0,2.29 1.93,4.16 4.29,4.16 0.92,0 1.76,-0.29 2.46,-0.76 7.46,1.76 13.03,8.29 13.03,16.06 0,9.12 -7.66,16.53 -17.06,16.53 -9.42,0 -17.07,-7.41 -17.07,-16.53 0,-2.1 0.4,-4.17 1.2,-6.09l1.57 0.92c0.44,0.27 0.79,0.07 0.73,-0.44l-0.61 -6.88c-0.05,-0.51 -0.48,-0.76 -0.97,-0.57l-6.58 2.62c-0.5,0.2 -0.52,0.58 -0.08,0.84l1.37 0.81c-1.26,2.75 -1.92,5.75 -1.92,8.79 0,11.94 10.02,21.66 22.36,21.66 12.31,0 22.35,-9.72 22.35,-21.66 0,-10.08 -7.15,-18.57 -16.79,-20.97z"/>
  <path class="fil2" d="M127.77 32.99c-1.54,0 -2.78,-1.2 -2.78,-2.69 0,-1.49 1.24,-2.7 2.78,-2.7 1.53,0 2.78,1.21 2.78,2.7 0,1.49 -1.25,2.69 -2.78,2.69zm46.75 -28.85c-2.81,0 -5.52,0.97 -7.66,2.66l-0.98 -1.29c-0.31,-0.41 -0.7,-0.35 -0.85,0.14l-2.13 6.58c-0.15,0.5 0.15,0.89 0.68,0.89l7.12 0c0.52,0 0.71,-0.34 0.39,-0.76l-1.1 -1.43c1.23,-1.08 2.83,-1.67 4.53,-1.67 3.76,0 6.82,2.96 6.82,6.61 0,3.42 -2.65,6.25 -6.17,6.57 -0.3,0.02 -1.32,-0.07 -2.14,-0.2l-16.87 -3.06c-2.07,-0.42 -4.2,-0.62 -6.31,-0.62 -7.8,0 -15.22,2.78 -20.97,7.73 -0.36,-0.1 -0.73,-0.15 -1.11,-0.15 -2.37,0 -4.29,1.87 -4.29,4.16 0,2.3 1.92,4.15 4.29,4.15 2.32,0 4.22,-1.8 4.29,-4.04 4.82,-4.3 11.15,-6.73 17.79,-6.73 1.77,0 3.55,0.17 5.27,0.52l16.98 3.08 0.05 0.01c0.53,0.08 2.36,0.36 3.51,0.24 6.25,-0.56 10.97,-5.58 10.97,-11.66 0,-6.47 -5.44,-11.73 -12.11,-11.73z"/>
  <path class="fil2" d="M185.74 55.55c-1.53,0 -2.78,-1.21 -2.78,-2.7 0,-1.48 1.25,-2.68 2.78,-2.68 1.54,0 2.78,1.2 2.78,2.68 0,1.49 -1.24,2.7 -2.78,2.7zm0.07 -6.84l-7.13 -8.67 -0.04 -0.06c-0.23,-0.25 -2.25,-2.58 -3.87,-3.71 -3.99,-2.86 -8.64,-4.35 -13.45,-4.35 -4.2,0 -8.52,1.05 -12.16,2.98 -3.34,1.76 -6.8,4.27 -10.82,7.18 -4.75,3.43 -10.14,7.33 -16.71,10.99 -1.22,0.69 -2.69,1.06 -4.18,1.06 -1.35,0 -2.65,-0.46 -3.6,-1.24l1.41 -0.79c0.46,-0.25 0.43,-0.63 -0.05,-0.83l-6.51 -2.78c-0.49,-0.22 -0.93,0.04 -1,0.55l-0.79 6.85c-0.05,0.51 0.28,0.72 0.74,0.46l1.48 -0.83c1.96,2.33 5.02,3.72 8.32,3.72 2.42,0 4.78,-0.59 6.82,-1.73 6.84,-3.81 12.37,-7.81 17.24,-11.33 3.85,-2.79 7.17,-5.2 10.18,-6.78 2.87,-1.53 6.3,-2.37 9.63,-2.37 3.67,0 7.23,1.16 10.32,3.36 0.83,0.59 2.23,2.06 2.94,2.87l7.02 8.54c-0.09,0.34 -0.15,0.69 -0.15,1.05 0,2.3 1.93,4.17 4.29,4.17 2.37,0 4.29,-1.87 4.29,-4.17 0,-2.26 -1.89,-4.11 -4.22,-4.14z"/>
  <path class="fil1" d="M161.63 128.09c-0.84,0.86 -1.86,2.32 -3.13,4.47 -1.04,1.8 -1.84,2.99 -2.42,3.66 -0.91,1.09 -1.87,1.63 -2.85,1.63 -0.24,0 -0.5,-0.05 -0.72,-0.18 -0.25,-0.13 -0.43,-0.3 -0.56,-0.55 -0.13,-0.23 -0.19,-0.47 -0.19,-0.72l0 -10.43 -2.61 0 0 10.43c0,0.69 0.18,1.36 0.56,2.01 0.36,0.63 0.86,1.13 1.51,1.48 0.64,0.34 1.32,0.51 2.01,0.51 1.62,0 3.11,-0.72 4.44,-2.13 0.41,-0.43 0.87,-1 1.39,-1.74l0.61 -0.88 0.61 0.88c0.51,0.75 0.96,1.32 1.36,1.74 1.2,1.26 2.52,1.97 3.95,2.11l0.41 0.04 0 -2.54 -0.31 -0.05c-0.85,-0.14 -1.66,-0.69 -2.47,-1.66 -0.45,-0.49 -1.06,-1.38 -1.82,-2.64l-0.23 -0.37 0.23 -0.37c0.75,-1.22 1.36,-2.11 1.82,-2.63 0.8,-0.94 1.62,-1.48 2.47,-1.61l0.31 -0.05 0 -2.54 -0.4 0.03c-1.45,0.14 -2.78,0.85 -3.97,2.1z"/>
  <path class="fil1" d="M141.36 138.22c-0.37,-0.24 -0.56,-0.64 -0.56,-1.21l0 -7.81c0,-1.5 -0.69,-2.61 -1.85,-2.98 -0.18,-0.06 -0.53,-0.15 -2.1,-0.22l-0.92 -0.01 0 1.88c0,0 1.08,-0.01 1.44,0.09 0.13,0.05 0.25,0.13 0.25,0.13 0.37,0.24 0.56,0.65 0.56,1.22l0 7.81c0,1.49 0.69,2.6 1.84,2.97 0.23,0.07 0.53,0.15 1.95,0.21l1.24 0.02 0 -1.85c0,0 -1.23,-0.01 -1.64,-0.14 -0.04,-0.02 -0.21,-0.11 -0.21,-0.11z"/>
  <path class="fil1" d="M192.16 136.97l-0.1 0.22c-0.06,0.15 -0.16,0.29 -0.28,0.39 -0.28,0.26 -0.57,0.3 -0.94,0.3 -0.05,0 -0.13,0 -0.23,0l-12.44 0 -0.68 -0.05c-0.83,-0.13 -1.66,-0.69 -2.47,-1.66 -0.44,-0.49 -1.05,-1.39 -1.8,-2.61 -0.08,-0.16 -0.17,-0.37 -0.18,-0.41 0.01,-0.06 0.09,-0.23 0.17,-0.37 0.75,-1.21 1.36,-2.09 1.8,-2.61 0.95,-1.09 1.91,-1.65 2.89,-1.65l3.85 0c0.98,0 1.94,0.56 2.88,1.66 0.19,0.21 0.41,0.5 0.64,0.82l0.67 1.18 -7.66 -0.01 -1.37 2.14 11.26 0c0.45,0 0.82,-0.33 0.91,-0.81 0.04,-0.25 -0.02,-0.5 -0.1,-0.77 -0.37,-1.22 -1.28,-3.08 -2.76,-4.64 -1.35,-1.4 -2.85,-2.12 -4.47,-2.12l-3.85 0c-1.63,0 -3.13,0.72 -4.47,2.12 -0.52,0.53 -1.05,1.29 -1.79,2.42l-0.03 0.05c-0.05,0.06 -1.06,1.42 -1,2.87 0.04,1.25 1.03,2.75 1.34,3.18 0.39,0.56 0.82,0.98 1.19,1.35l0.03 0.03c0.1,0.09 0.2,0.19 0.27,0.27 1.26,1.32 2.64,2.03 4.14,2.12l0.51 0.06 0.04 0 12.51 0c2.24,0 3.55,-1.03 3.89,-3.04l0.07 -0.43 -2.44 0z"/>
  <path class="fil1" d="M129.06 132.06l-0.82 -0.08 -0.53 0c0,0 0.2,-0.13 0.4,-0.33 0.31,-0.31 0.42,-1.11 0.42,-1.43 0,-1.16 -0.42,-2.15 -1.25,-2.97 -0.88,-0.86 -1.89,-1.29 -3.03,-1.29l-7.15 0.02c-0.19,-0.01 -1.06,-0.01 -1.07,-0.01 -1.79,0 -3.01,0.66 -3.96,2.15 -0.19,0.28 -0.4,0.6 -0.63,0.96 -0.6,0.87 -1.34,1.96 -2.23,3.48 -1.04,1.78 -1.85,3 -2.42,3.64 -0.77,0.92 -1.58,1.46 -2.43,1.61l-0.16 0.03 -1.37 2.21 0.52 0.11c0.27,0.05 0.55,0.08 0.84,0.08l0 0 0.41 -0.01c0.35,-0.02 0.74,-0.07 1.19,-0.18 1,-0.22 1.88,-1.02 2.6,-1.78 0.32,-0.34 0.68,-0.8 1.09,-1.37l4.92 -7.86c0.09,-0.14 0.24,-0.32 0.43,-0.45 0.24,-0.18 0.49,-0.17 0.5,-0.17l8.64 0c0,0 0.13,0 0.19,0 1.02,0 1.88,0.81 1.88,1.81 0,1.03 -1.13,1.83 -1.85,1.81 -0.12,0 -0.24,0.02 -0.31,0.01l-7.64 -0.01 -1.37 2.24 13.57 0c1.02,0 1.86,0.81 1.86,1.82 0,1.01 -0.84,1.81 -1.86,1.81 -0.07,0 -0.61,0.01 -0.61,0.01l-12.36 0.02c-0.36,0 -0.73,-0.13 -1.04,-0.35l-0.11 -0.07 -3.13 0 0.21 0.49c0.19,0.47 0.46,0.89 0.83,1.25 0.8,0.79 1.81,1.14 3.24,1.14l12.95 0.01c1.13,0 2.15,-0.44 3.02,-1.3 0.84,-0.82 1.25,-1.83 1.25,-3 0,-1.17 -0.41,-2.18 -1.25,-3 -0.62,-0.61 -1.38,-0.95 -2.38,-1.05z"/>
  <path class="fil1" d="M203.14 100.24l10.96 -0.01 -2.91 -4.77c0,0 -8.01,-0.01 -8.01,-0.02 -0.11,0 -0.47,0.02 -0.47,0.02l0 0.01c-1.13,0.11 -2.1,0.46 -2.9,1.02 -0.92,-0.64 -2.07,-1.02 -3.38,-1.05 0,0.01 -1.02,0 -1.02,0.01l-9.88 0.01 2.93 4.77 7.12 0.01c0,0 0.88,0 0.88,0 0.51,0.03 0.88,0.48 0.88,0.95l0 5.28 0.04 1.61c0.45,3.89 3.71,6.75 7.7,6.77l0.77 0.02 4.23 0 0 -4.76 -3.89 0c0,0 -1.04,-0.01 -1.07,-0.01 -1.43,0 -2.73,-1.05 -2.85,-2.44 -0.01,-0.1 0,-0.4 0,-0.4l0 -6.06 -0.01 -0.01c-0.01,-0.5 0.42,-0.91 0.88,-0.95z"/>
  <path class="fil1" d="M92.39 109.98c-0.9,0 -1.81,-0.63 -2.35,-1.19 -1.01,-1.06 -2.64,-3.74 -2.64,-3.74l-2.29 -3.68c-2.28,-3.5 -4.67,-6.12 -8.46,-6.12l0 0 -0.01 0c-3.8,0 -6.19,2.62 -8.46,6.12l-2.29 3.68c0,0 -1.64,2.68 -2.65,3.74 -0.54,0.56 -1.46,1.19 -2.35,1.19l-0.01 0 -0.01 0c-0.23,0 -0.47,-0.05 -0.7,-0.12l-2.68 4.37c1,0.52 2.12,0.82 3.38,0.82l0.01 0 0.01 0c3.8,0 6.19,-2.62 8.46,-6.12l2.38 -3.88c1.03,-1.71 1.55,-2.48 2.55,-3.54 0.55,-0.56 1.46,-1.19 2.37,-1.19 0.9,0 1.8,0.63 2.35,1.19 1.01,1.06 1.52,1.83 2.55,3.54l0.14 0.13 -0.65 -0.07 -1.86 -0.01c-1.53,0.08 -2.91,0.44 -4,1.51 -1.12,1.12 -1.83,2.69 -1.84,4.36l4.96 0c0,0 -0.03,-0.49 0.23,-0.77 0.19,-0.22 0.34,-0.29 0.62,-0.3l5.42 -0.01c2.09,3.01 4.38,5.15 7.81,5.16l0.01 0 0 0 0 0 0.01 0c1.26,0 2.37,-0.3 3.37,-0.82l-2.68 -4.37c-0.24,0.07 -0.46,0.12 -0.7,0.12z"/>
  <path class="fil1" d="M132.05 105.06c0,0 0,-0.01 0,-0.01 0,0 0,0 0,0.01zm-0.06 0.08c0.01,-0.01 0.01,-0.01 0.01,-0.02 0,0.01 0,0.01 -0.01,0.02zm-0.11 0.18c0.01,-0.02 0.03,-0.05 0.05,-0.07 -0.02,0.02 -0.04,0.05 -0.05,0.07zm-0.1 0.16c0.02,-0.03 0.04,-0.05 0.06,-0.08 -0.02,0.03 -0.04,0.05 -0.06,0.08zm-0.17 0.27c0.03,-0.04 0.04,-0.07 0.07,-0.11 -0.03,0.04 -0.04,0.07 -0.07,0.11zm-0.14 0.23c0.02,-0.05 0.05,-0.09 0.08,-0.13 -0.03,0.04 -0.06,0.08 -0.08,0.13zm-0.22 0.32c0.05,-0.07 0.1,-0.14 0.14,-0.21 -0.04,0.07 -0.09,0.14 -0.14,0.21zm-0.17 0.27c0.03,-0.06 0.07,-0.11 0.09,-0.15 -0.02,0.04 -0.06,0.09 -0.09,0.15zm-0.24 0.35c0.06,-0.08 0.11,-0.17 0.17,-0.25 -0.06,0.08 -0.11,0.17 -0.17,0.25zm-0.19 0.27c0.04,-0.04 0.07,-0.09 0.11,-0.15 -0.04,0.06 -0.07,0.11 -0.11,0.15zm59.16 2.85c-1.1,0.01 -1.73,-0.69 -2.28,-1.25 -1.01,-1.06 -2.63,-3.74 -2.63,-3.74l-2.3 -3.68c-2.27,-3.5 -4.66,-6.12 -8.46,-6.12l-0.01 0 -0.01 0c-3.8,0 -6.19,2.62 -8.47,6.12l-2.29 3.68c0,0 -1.62,2.68 -2.63,3.74 -0.49,0.51 -1.24,1.16 -2.05,1.27 0,0 -0.16,-0.01 -0.2,-0.01l0 0c-0.88,-0.1 -1.72,-0.9 -2.24,-1.42 -1.01,-1.04 -2.63,-3.7 -2.63,-3.7l-2.3 -3.65c-2.27,-3.47 -4.67,-6.05 -8.47,-6.05l-0.01 0c-3.8,0 -6.2,2.61 -8.47,6.12l-0.93 1.48 -0.97 -1.55c-2.27,-3.47 -4.67,-6.05 -8.47,-6.05l0 0 -0.01 0c-3.81,0 -6.19,2.61 -8.46,6.12l-2.3 3.68c0,0 -1.63,2.67 -2.64,3.72 -0.53,0.56 -1.43,1.3 -2.3,1.33l-6.86 0c-0.58,-0.03 -1.02,-0.47 -1.1,-1.01 -0.03,-0.2 -0.03,-0.83 -0.03,-0.83l-0.01 -6.94 0 0c0,-0.01 0,-0.02 0,-0.04l0 -0.05 -0.01 0c-0.07,-3.11 -2.31,-5.69 -5.83,-5.77 -0.01,4.88 0.01,4.85 0.01,4.8 0.49,0.07 0.87,0.37 0.91,0.86l0.01 0.81 -0.01 6.48 0.02 0.7c0.07,3.17 2.74,5.72 6.04,5.75l0.46 0 6.34 0.01 0.01 0 0.15 0 0.02 -0.01c3.7,-0.07 6.05,-2.49 8.3,-5.94l2.37 -3.87c1.04,-1.71 1.55,-2.49 2.55,-3.54 0.55,-0.57 1.47,-1.19 2.36,-1.19l0.01 0 0 -0.06 0 0c0.9,0 1.81,0.62 2.36,1.19 1.01,1.04 1.52,1.81 2.55,3.5l1.56 2.52c0.04,-0.05 0.08,-0.1 0.11,-0.14 -0.39,0.55 -0.8,1.09 -1.13,1.44 -0.56,0.57 -1.47,1.2 -2.37,1.2l0 0 0 5.07 0 0c3.8,0 6.19,-2.62 8.47,-6.12l2.37 -3.87c1.04,-1.71 1.55,-2.49 2.56,-3.54 0.54,-0.57 1.46,-1.19 2.36,-1.19l0 0 0.01 0c0.9,0 1.82,0.56 2.36,1.13 1.01,1.04 1.52,1.81 2.55,3.5l2.38 3.84c2.21,3.39 4.55,6.16 8.2,6.29 0.08,0 0.27,0 0.27,0 0,0 0.22,-0.01 0.3,-0.01 3.52,-0.21 5.76,-2.77 7.94,-6.12l2.36 -3.88c1.04,-1.71 1.56,-2.48 2.56,-3.54 0.55,-0.56 1.46,-1.19 2.36,-1.19l0.01 0 0.01 0c0.89,0 1.81,0.63 2.36,1.19 1,1.06 1.52,1.83 2.55,3.54l0.14 0.13 -0.55 -0.08 -1.98 0c-1.54,0.08 -2.9,0.44 -3.99,1.51 -1.13,1.12 -1.84,2.69 -1.85,4.36l4.96 0c0,0 -0.02,-0.49 0.22,-0.77 0.19,-0.22 0.36,-0.29 0.64,-0.3l5.43 -0.01c2.08,3.01 4.37,5.16 7.82,5.16l0 0 0.46 0 3.07 -5.01 -3.53 0 -0.08 0z"/>
  <path class="fil1" d="M236.63 95.44c-1.36,0 -2.63,0.56 -3.73,1.67 -0.64,0.62 -1.41,1.68 -2.38,3.21 -0.29,0.46 -0.56,0.87 -0.81,1.22 -0.09,0.15 -0.2,0.31 -0.3,0.46 -0.25,0.35 -0.47,0.62 -0.63,0.81 -1.17,1.28 -2.22,1.25 -3.36,0 -0.39,-0.44 -0.99,-1.27 -1.76,-2.49 -0.95,-1.53 -1.72,-2.58 -2.36,-3.21 -1.11,-1.11 -2.37,-1.67 -3.74,-1.67l-0.56 0 -3.15 0 2.9 4.8 0.51 0c0.2,0.03 0.46,0.08 0.59,0.2 0.39,0.37 0.85,0.93 1.62,2.15 0.91,1.46 1.64,2.47 2.22,3.12 1.1,1.2 2.32,1.97 3.67,2.33 -0.19,0.24 -0.36,0.44 -0.52,0.62 -1.14,1.25 -1.89,1.26 -2.98,1.44 -1.03,0.18 -3.68,0.22 -3.68,0.22l2.72 4.73 0.56 0c2.49,-0.01 4.59,-0.98 6.52,-2.9 1.15,-1.11 2.54,-3.02 4.26,-5.8 0.35,-0.55 0.68,-1.07 0.97,-1.52 0.44,-0.58 0.95,-1.34 1.51,-2.24 0.76,-1.22 1.36,-2.01 1.74,-2.41 0.22,-0.24 0.73,-0.24 0.73,-0.24l2.75 -4.5 -3.31 0z"/>
 </g>
</svg>
