<svg width="32" height="32" viewBox="0 0 32 32" fill="none" xmlns="http://www.w3.org/2000/svg">
<path d="M16.8087 0.0270014C18.8173 0 20.8143 0.0160009 22.809 0C22.9299 2.04111 23.7748 4.12022 25.4944 5.5633C27.2106 7.04238 29.6381 7.71941 32 7.94842V13.3177C29.7866 13.2547 27.5628 12.8547 25.5542 12.0266C24.6795 11.6826 23.8645 11.2396 23.0669 10.7866C23.0565 14.6828 23.0853 18.574 23.0381 22.4542C22.9184 24.3183 22.2105 26.1734 20.9628 27.7095C18.9554 30.2666 15.4713 31.9337 11.8927 31.9857C9.6977 32.0947 7.50499 31.5747 5.63458 30.6166C2.53486 29.0285 0.353664 26.1214 0.0359801 23.0012C-0.000852779 22.3342 -0.0135141 21.6682 0.0175636 21.0171C0.29381 18.48 1.73835 16.0529 3.98055 14.4018C6.52202 12.4787 10.0821 11.5626 13.4155 12.1046C13.4466 14.0798 13.3557 16.0529 13.3557 18.028C11.8329 17.5999 10.0534 17.7199 8.72278 18.523C7.75131 19.07 7.01351 19.9081 6.62906 20.8561C6.31138 21.5322 6.40231 22.2832 6.42073 23.0012C6.7856 25.1893 9.20736 27.0284 11.7926 26.8294C13.5064 26.8134 15.149 25.9494 16.0422 24.6843C16.3311 24.2413 16.6545 23.7883 16.6718 23.2672C16.8226 20.8821 16.7627 18.507 16.7811 16.1219C16.7938 10.7466 16.7627 5.38629 16.8099 0.0280015L16.8087 0.0270014Z" fill="black"/>
</svg>
