<svg width="32" height="32" viewBox="0 0 32 32" fill="none" xmlns="http://www.w3.org/2000/svg">
<path d="M32 15.5879C32 24.197 24.9675 31.1758 16.2908 31.1758C13.5364 31.1758 10.9486 30.4718 8.69724 29.2363L0 32L2.83556 23.6366C1.40516 21.2878 0.581333 18.533 0.581333 15.5879C0.581333 6.97884 7.61458 0 16.2908 0C24.9682 0 32 6.97884 32 15.5879ZM16.2908 2.48249C9.00765 2.48249 3.08338 8.3616 3.08338 15.5879C3.08338 18.4555 4.01813 21.1111 5.59929 23.2715L3.94916 28.1387L9.02471 26.5255C11.11 27.8948 13.6082 28.6933 16.2912 28.6933C23.5733 28.6933 29.4987 22.8149 29.4987 15.5886C29.4987 8.36231 23.5737 2.48249 16.2908 2.48249ZM24.2236 19.178C24.1266 19.019 23.8702 18.923 23.4855 18.7321C23.1001 18.5412 21.2064 17.6164 20.8544 17.4894C20.5013 17.3621 20.2439 17.2981 19.9876 17.6804C19.7312 18.0629 18.9931 18.923 18.768 19.178C18.5433 19.4336 18.3189 19.4656 17.9335 19.2743C17.5488 19.0834 16.3083 18.6795 14.8373 17.3781C13.6928 16.3655 12.9198 15.1154 12.6951 14.7324C12.4708 14.3502 12.6716 14.1436 12.864 13.9534C13.0375 13.782 13.2494 13.5072 13.4418 13.2843C13.6348 13.061 13.6988 12.902 13.8265 12.6468C13.9556 12.3918 13.8912 12.1689 13.7945 11.9772C13.6985 11.7863 12.9276 9.90613 12.6069 9.14098C12.2862 8.37653 11.9659 8.50382 11.7408 8.50382C11.5164 8.50382 11.2594 8.47182 11.0027 8.47182C10.746 8.47182 10.3285 8.56747 9.97547 8.94969C9.62276 9.33227 8.62827 10.2567 8.62827 12.1365C8.62827 14.0167 10.0075 15.8332 10.2005 16.0878C10.3929 16.3424 12.8636 20.326 16.7783 21.856C20.6933 23.3852 20.6933 22.875 21.3995 22.811C22.1049 22.7474 23.6772 21.8869 23.9993 20.9952C24.3193 20.102 24.3193 19.3372 24.2236 19.178Z" fill="black"/>
</svg>
